# xmcd CD database file
#
# Track frame offsets:
#	150
#	16145
#	34359
#	49469
#	65123
#	80407
#	95959
#	118955
#	136263
#	150492
#	177519
#
# Disc length: 2567 seconds
#
# Revision: 0
# Processed by: cddbd v1.5.2PL0 Copyright (c) Steve Scherf et al.
# Submitted via: CDex 1.72
#
DISCID=9f0a050b
DTITLE=Craru, Dan, and Thunderation (USA-11-Perfect Storm-blues) - Perfect Storm
DYEAR=2011
DGENRE=Blues
TTITLE0=Sail Away Ladies
TTITLE1=Thunderation
TTITLE2=One More Dollar
TTITLE3=I'd Do It Again
TTITLE4=Muley Was A Railroad Man
TTITLE5=Deep River Blues
TTITLE6=Girl From The North Country
TTITLE7=Highway 17
TTITLE8=Tumbleweed Town
TTITLE9=Suite 222
TTITLE10=Long Journey Home
EXTD=YEAR: 2011
EXTT0=
EXTT1=
EXTT2=
EXTT3=
EXTT4=
EXTT5=
EXTT6=
EXTT7=
EXTT8=
EXTT9=
EXTT10=
PLAYORDER=
